<?xml version="1.0" encoding="UTF-8"?>
<svg xmlns="http://www.w3.org/2000/svg"
     xmlns:xlink="http://www.w3.org/1999/xlink"
     version="1.1"
     x="0"
     y="0"
     width="1417.323"
     height="1417.323"
     viewBox="0, 0, 1417.323, 1417.323"
     preserveAspectRatio="xMidYMid meet"
     zoomAndPan="magnify"
     contentScriptType="text/ecmascript"
     contentStyleType="text/css">
   <defs>
      <style type="text/css">
                    .floor {
                        fill: #003300;
                        stroke: #666635;
                        stroke-width: 1;
                    }
                    .room {
                        fill: #DBDBDB;
                    }
                    .waypoint {
                        fill: #CCCC00;
                    }
                    .door {
                        fill: #993333;
                    }
                    .debug #F0 {
                        display: none;
                    }
                    .debug #F2 {
                        display: none;
                    }
                    .debug #Atrium {
                        display: none;
                    }
                </style>
   </defs>
  
  <g id="Atrium" display="none">
      <path d="M255.118,255.118 L1162.205,255.118 L1162.205,1162.205 L255.118,1162.205 L255.118,255.118 z"
            fill="#0000FF"/>
      <path d="M595.276,595.276 L822.047,595.276 L822.047,822.047 L595.276,822.047 L595.276,595.276 z"
            fill="#000000"
            fill-opacity="0.7"/>
  </g>
  <g id="F0">
      <g id="PH-OB-F0-East">
         <path d="M170.579,1389.476 L170.579,1318.61 L156.405,1318.61 L156.406,1261.917 L170.579,1261.917 L170.579,1247.744 L255.618,1162.705 L1162.705,1162.705 L1247.744,1247.744 L1247.744,1261.917 L1261.917,1261.917 L1261.917,1318.61 L1247.744,1318.61 L1247.744,1389.476 L170.579,1389.476 z"
               class="floor"/>
      </g>
      <g id="PH-OB-F0-West">
         <path d="M1247.744,28.846 L1247.744,99.713 L1261.917,99.713 L1261.917,156.406 L1247.744,156.406 L1247.744,170.579 L1162.705,255.618 L255.618,255.618 L170.579,170.579 L170.579,156.406 L156.405,156.406 L156.406,99.713 L170.579,99.713 L170.579,28.846 L1247.744,28.846 z"
               class="floor"/>
      </g>
      <g id="PH-OB-F0-South">
         <path d="M28.846,170.579 L99.713,170.579 L99.713,156.405 L156.406,156.406 L156.406,170.579 L170.579,170.579 L255.618,255.618 L255.618,1162.705 L170.579,1247.744 L156.406,1247.744 L156.406,1261.917 L99.713,1261.917 L99.713,1247.744 L28.846,1247.744 L28.846,170.579 z"
               class="floor"/>
      </g>
      <g>
         <g>
            <path d="M156.406,156.406 L170.579,156.406 L170.579,170.579 L156.406,170.579 L156.406,156.406 z"
                  fill="#CCCC7F"/>
            <path d="M156.406,156.406 L170.579,156.406 L170.579,170.579 L156.406,170.579 L156.406,156.406 z"
                  fill-opacity="0"
                  stroke="#666635"
                  stroke-width="1"/>
         </g>
         <g>
            <path d="M170.579,0.5 L170.579,28.846 L1247.744,28.846 L1247.744,0.5 L1417.823,0.5 L1417.823,170.579 L1389.476,170.579 L1389.476,1247.744 L1417.823,1247.744 L1417.823,1417.823 L1247.744,1417.823 L1247.744,1389.476 L170.579,1389.476 L170.579,1417.823 L0.5,1417.823 L0.5,1247.744 L28.846,1247.744 L28.846,170.579 L0.5,170.579 L0.5,0.5 L170.579,0.5 z M156.405,14.673 L14.673,14.673 L14.673,156.406 L99.713,156.405 L99.713,170.579 L43.02,170.579 L43.02,1247.744 L99.713,1247.744 L99.713,1261.917 L43.02,1261.917 L14.673,1261.917 L14.673,1403.65 L156.405,1403.65 L156.405,1318.61 L170.579,1318.61 L170.579,1375.303 L1247.744,1375.303 L1247.744,1318.61 L1261.917,1318.61 L1261.917,1375.303 L1261.917,1403.65 L1403.65,1403.65 L1403.65,1261.917 L1389.476,1261.917 L1389.476,1261.917 L1375.303,1261.917 L1375.303,1261.917 L1318.61,1261.917 L1318.61,1247.744 L1375.303,1247.744 L1375.303,170.579 L1318.61,170.579 L1318.61,156.406 L1403.65,156.406 L1403.65,14.673 L1261.917,14.673 L1261.917,99.713 L1247.744,99.713 L1247.744,43.02 L170.579,43.02 L170.579,99.713 L156.406,99.713 L156.405,14.673 z"
                  fill="#CCCC7F"/>
            <path d="M170.579,0.5 L170.579,28.846 L1247.744,28.846 L1247.744,0.5 L1417.823,0.5 L1417.823,170.579 L1389.476,170.579 L1389.476,1247.744 L1417.823,1247.744 L1417.823,1417.823 L1247.744,1417.823 L1247.744,1389.476 L170.579,1389.476 L170.579,1417.823 L0.5,1417.823 L0.5,1247.744 L28.846,1247.744 L28.846,170.579 L0.5,170.579 L0.5,0.5 L170.579,0.5 z M156.405,14.673 L14.673,14.673 L14.673,156.406 L99.713,156.405 L99.713,170.579 L43.02,170.579 L43.02,1247.744 L99.713,1247.744 L99.713,1261.917 L43.02,1261.917 L14.673,1261.917 L14.673,1403.65 L156.405,1403.65 L156.405,1318.61 L170.579,1318.61 L170.579,1375.303 L1247.744,1375.303 L1247.744,1318.61 L1261.917,1318.61 L1261.917,1375.303 L1261.917,1403.65 L1403.65,1403.65 L1403.65,1261.917 L1389.476,1261.917 L1389.476,1261.917 L1375.303,1261.917 L1375.303,1261.917 L1318.61,1261.917 L1318.61,1247.744 L1375.303,1247.744 L1375.303,170.579 L1318.61,170.579 L1318.61,156.406 L1403.65,156.406 L1403.65,14.673 L1261.917,14.673 L1261.917,99.713 L1247.744,99.713 L1247.744,43.02 L170.579,43.02 L170.579,99.713 L156.406,99.713 L156.405,14.673 z"
                  fill-opacity="0"
                  stroke="#666635"
                  stroke-width="1"/>
         </g>
         <g>
            <path d="M156.406,1261.917 L156.406,1247.744 L170.579,1247.744 L170.579,1261.917 L156.406,1261.917 z"
                  fill="#CCCC7F"/>
            <path d="M156.406,1261.917 L156.406,1247.744 L170.579,1247.744 L170.579,1261.917 L156.406,1261.917 z"
                  fill-opacity="0"
                  stroke="#666635"
                  stroke-width="1"/>
         </g>
         <g>
            <path d="M1261.917,1261.917 L1247.744,1261.917 L1247.744,1247.744 L1261.917,1247.744 L1261.917,1261.917 z"
                  fill="#CCCC7F"/>
            <path d="M1261.917,1261.917 L1247.744,1261.917 L1247.744,1247.744 L1261.917,1247.744 L1261.917,1261.917 z"
                  fill-opacity="0"
                  stroke="#666635"
                  stroke-width="1"/>
         </g>
         <g>
            <path d="M1261.917,156.406 L1261.917,170.579 L1247.744,170.579 L1247.744,156.406 L1261.917,156.406 z"
                  fill="#CCCC7F"/>
            <path d="M1261.917,156.406 L1261.917,170.579 L1247.744,170.579 L1247.744,156.406 L1261.917,156.406 z"
                  fill-opacity="0"
                  stroke="#666635"
                  stroke-width="1"/>
         </g>
      </g>
    
    
    
    
      <g>
         <g>
            <path d="M224.437,43.02 L230.106,43.02 L230.106,139.884 L283.478,193.256 L337.823,193.256 L337.823,198.925 L281.13,198.925 L224.437,142.232 L224.437,43.02 z"
                  fill="#CCCC7F"/>
            <path d="M224.437,43.02 L230.106,43.02 L230.106,139.884 L283.478,193.256 L337.823,193.256 L337.823,198.925 L281.13,198.925 L224.437,142.232 L224.437,43.02 z"
                  fill-opacity="0"
                  stroke="#666635"
                  stroke-width="1"/>
         </g>
         <g>
            <path d="M1193.886,43.02 L1188.216,43.02 L1188.216,139.884 L1134.844,193.256 L1080.5,193.256 L1080.5,198.925 L1137.193,198.925 L1193.886,142.232 L1193.886,43.02 z"
                  fill="#CCCC7F"/>
            <path d="M1193.886,43.02 L1188.216,43.02 L1188.216,139.884 L1134.844,193.256 L1080.5,193.256 L1080.5,198.925 L1137.193,198.925 L1193.886,142.232 L1193.886,43.02 z"
                  fill-opacity="0"
                  stroke="#666635"
                  stroke-width="1"/>
         </g>
         <g>
            <path d="M595.776,198.925 L595.776,193.256 L734.673,193.256 L734.673,43.02 L740.343,43.02 L740.343,193.256 L822.547,193.256 L822.547,198.925 L595.776,198.925 z"
                  fill="#CCCC7F"/>
            <path d="M595.776,198.925 L595.776,193.256 L734.673,193.256 L734.673,43.02 L740.343,43.02 L740.343,193.256 L822.547,193.256 L822.547,198.925 L595.776,198.925 z"
                  fill-opacity="0"
                  stroke="#666635"
                  stroke-width="1"/>
         </g>
         <g>
            <path d="M865.067,198.925 L865.067,193.256 L961.445,193.256 L961.445,43.02 L967.114,43.02 L967.114,193.256 L1035.146,193.256 L1035.146,198.925 L865.067,198.925 z"
                  fill="#CCCC7F"/>
            <path d="M865.067,198.925 L865.067,193.256 L961.445,193.256 L961.445,43.02 L967.114,43.02 L967.114,193.256 L1035.146,193.256 L1035.146,198.925 L865.067,198.925 z"
                  fill-opacity="0"
                  stroke="#666635"
                  stroke-width="1"/>
         </g>
         <g>
            <path d="M383.177,198.925 L383.177,193.256 L451.209,193.256 L451.209,43.02 L456.878,43.02 L456.878,193.256 L553.256,193.256 L553.256,198.925 L383.177,198.925 z"
                  fill="#CCCC7F"/>
            <path d="M383.177,198.925 L383.177,193.256 L451.209,193.256 L451.209,43.02 L456.878,43.02 L456.878,193.256 L553.256,193.256 L553.256,198.925 L383.177,198.925 z"
                  fill-opacity="0"
                  stroke="#666635"
                  stroke-width="1"/>
         </g>
      </g>
      <g>
         <g>
            <path d="M43.02,1193.886 L43.02,1188.217 L139.884,1188.217 L193.256,1134.845 L193.256,1080.5 L198.925,1080.5 L198.925,1137.193 L142.232,1193.886 L43.02,1193.886 z"
                  fill="#CCCC7F"/>
            <path d="M43.02,1193.886 L43.02,1188.217 L139.884,1188.217 L193.256,1134.845 L193.256,1080.5 L198.925,1080.5 L198.925,1137.193 L142.232,1193.886 L43.02,1193.886 z"
                  fill-opacity="0"
                  stroke="#666635"
                  stroke-width="1"/>
         </g>
         <g>
            <path d="M43.02,224.437 L43.02,230.106 L139.884,230.106 L193.256,283.478 L193.256,337.823 L198.925,337.823 L198.925,281.13 L142.232,224.437 L43.02,224.437 z"
                  fill="#CCCC7F"/>
            <path d="M43.02,224.437 L43.02,230.106 L139.884,230.106 L193.256,283.478 L193.256,337.823 L198.925,337.823 L198.925,281.13 L142.232,224.437 L43.02,224.437 z"
                  fill-opacity="0"
                  stroke="#666635"
                  stroke-width="1"/>
         </g>
         <g>
            <path d="M198.925,822.547 L193.256,822.547 L193.256,683.65 L43.02,683.65 L43.02,677.98 L193.256,677.98 L193.256,595.776 L198.925,595.776 L198.925,822.547 z"
                  fill="#CCCC7F"/>
            <path d="M198.925,822.547 L193.256,822.547 L193.256,683.65 L43.02,683.65 L43.02,677.98 L193.256,677.98 L193.256,595.776 L198.925,595.776 L198.925,822.547 z"
                  fill-opacity="0"
                  stroke="#666635"
                  stroke-width="1"/>
         </g>
         <g>
            <path d="M198.925,553.256 L193.256,553.256 L193.256,456.878 L43.02,456.878 L43.02,451.209 L193.256,451.209 L193.256,383.177 L198.925,383.177 L198.925,553.256 z"
                  fill="#CCCC7F"/>
            <path d="M198.925,553.256 L193.256,553.256 L193.256,456.878 L43.02,456.878 L43.02,451.209 L193.256,451.209 L193.256,383.177 L198.925,383.177 L198.925,553.256 z"
                  fill-opacity="0"
                  stroke="#666635"
                  stroke-width="1"/>
         </g>
         <g>
            <path d="M198.925,1035.146 L193.256,1035.146 L193.256,967.114 L43.02,967.114 L43.02,961.445 L193.256,961.445 L193.256,865.067 L198.925,865.067 L198.925,1035.146 z"
                  fill="#CCCC7F"/>
            <path d="M198.925,1035.146 L193.256,1035.146 L193.256,967.114 L43.02,967.114 L43.02,961.445 L193.256,961.445 L193.256,865.067 L198.925,865.067 L198.925,1035.146 z"
                  fill-opacity="0"
                  stroke="#666635"
                  stroke-width="1"/>
         </g>
      </g>
      <g>
         <g>
            <path d="M1193.886,1375.303 L1188.217,1375.303 L1188.217,1278.439 L1134.845,1225.067 L1080.5,1225.067 L1080.5,1219.398 L1137.193,1219.398 L1193.886,1276.091 L1193.886,1375.303 z"
                  fill="#CCCC7F"/>
            <path d="M1193.886,1375.303 L1188.217,1375.303 L1188.217,1278.439 L1134.845,1225.067 L1080.5,1225.067 L1080.5,1219.398 L1137.193,1219.398 L1193.886,1276.091 L1193.886,1375.303 z"
                  fill-opacity="0"
                  stroke="#666635"
                  stroke-width="1"/>
         </g>
         <g>
            <path d="M224.437,1375.303 L230.106,1375.303 L230.106,1278.439 L283.478,1225.067 L337.823,1225.067 L337.823,1219.398 L281.13,1219.398 L224.437,1276.091 L224.437,1375.303 z"
                  fill="#CCCC7F"/>
            <path d="M224.437,1375.303 L230.106,1375.303 L230.106,1278.439 L283.478,1225.067 L337.823,1225.067 L337.823,1219.398 L281.13,1219.398 L224.437,1276.091 L224.437,1375.303 z"
                  fill-opacity="0"
                  stroke="#666635"
                  stroke-width="1"/>
         </g>
         <g>
            <path d="M822.547,1219.398 L822.547,1225.067 L683.65,1225.067 L683.65,1375.303 L677.98,1375.303 L677.98,1225.067 L595.776,1225.067 L595.776,1219.398 L822.547,1219.398 z"
                  fill="#CCCC7F"/>
            <path d="M822.547,1219.398 L822.547,1225.067 L683.65,1225.067 L683.65,1375.303 L677.98,1375.303 L677.98,1225.067 L595.776,1225.067 L595.776,1219.398 L822.547,1219.398 z"
                  fill-opacity="0"
                  stroke="#666635"
                  stroke-width="1"/>
         </g>
         <g>
            <path d="M553.256,1219.398 L553.256,1225.067 L456.878,1225.067 L456.878,1375.303 L451.209,1375.303 L451.209,1225.067 L383.177,1225.067 L383.177,1219.398 L553.256,1219.398 z"
                  fill="#CCCC7F"/>
            <path d="M553.256,1219.398 L553.256,1225.067 L456.878,1225.067 L456.878,1375.303 L451.209,1375.303 L451.209,1225.067 L383.177,1225.067 L383.177,1219.398 L553.256,1219.398 z"
                  fill-opacity="0"
                  stroke="#666635"
                  stroke-width="1"/>
         </g>
         <g>
            <path d="M1035.146,1219.398 L1035.146,1225.067 L967.114,1225.067 L967.114,1375.303 L961.445,1375.303 L961.445,1225.067 L865.067,1225.067 L865.067,1219.398 L1035.146,1219.398 z"
                  fill="#CCCC7F"/>
            <path d="M1035.146,1219.398 L1035.146,1225.067 L967.114,1225.067 L967.114,1375.303 L961.445,1375.303 L961.445,1225.067 L865.067,1225.067 L865.067,1219.398 L1035.146,1219.398 z"
                  fill-opacity="0"
                  stroke="#666635"
                  stroke-width="1"/>
         </g>
      </g>
      <g id="PH-OB-F0-R12">
         <path d="M966.614,42.52 L966.614,192.756 L1134.344,192.756 L1187.716,139.384 L1187.716,42.52 L966.614,42.52 z"
               class="room"/>
         <path d="M1077.665,120.972 C1077.665,132.714 1068.147,142.232 1056.406,142.232 C1044.664,142.232 1035.146,132.714 1035.146,120.972 C1035.146,109.231 1044.664,99.713 1056.406,99.713 C1068.147,99.713 1077.665,109.231 1077.665,120.972 z"
               class="waypoint"/>
         <path d="M1034.646,198.425 L1034.646,192.756 L1077.165,192.756 L1077.165,198.425 L1034.646,198.425 z"
               class="door"/>
      </g>
      <g id="PH-OB-F0-R11">
         <path d="M739.843,42.52 L739.843,192.756 L960.945,192.756 L960.945,42.52 L739.843,42.52 z"
               class="room"/>
         <path d="M865.067,120.972 C865.067,132.714 855.549,142.232 843.807,142.232 C832.066,142.232 822.547,132.714 822.547,120.972 C822.547,109.231 832.066,99.713 843.807,99.713 C855.549,99.713 865.067,109.231 865.067,120.972 z"
               class="waypoint"/>
         <path d="M822.047,198.425 L822.047,192.756 L864.567,192.756 L864.567,198.425 L822.047,198.425 z"
               class="door"/>
      </g>
      <g id="PH-OB-F0-R10">
         <path d="M456.378,42.52 L456.378,192.756 L734.173,192.756 L734.173,42.52 L456.378,42.52 z"
               class="room"/>
         <path d="M595.776,120.972 C595.776,132.714 586.257,142.232 574.516,142.232 C562.774,142.232 553.256,132.714 553.256,120.972 C553.256,109.231 562.774,99.713 574.516,99.713 C586.257,99.713 595.776,109.231 595.776,120.972 z"
               class="waypoint"/>
         <path d="M552.756,198.425 L552.756,192.756 L595.276,192.756 L595.276,198.425 L552.756,198.425 z"
               class="door"/>
      </g>
      <g id="PH-OB-F0-R9">
         <path d="M229.606,42.52 L229.606,139.384 L282.978,192.756 L450.709,192.756 L450.709,42.52 L229.606,42.52 z"
               class="room"/>
         <path d="M383.177,120.972 C383.177,132.714 373.659,142.232 361.917,142.232 C350.176,142.232 340.658,132.714 340.658,120.972 C340.658,109.231 350.176,99.713 361.917,99.713 C373.659,99.713 383.177,109.231 383.177,120.972 z"
               class="waypoint"/>
         <path d="M340.158,198.425 L340.158,192.756 L382.677,192.756 L382.677,198.425 L340.158,198.425 z"
               class="door"/>
      </g>
      <g id="PH-OB-F0-R8">
         <path d="M42.52,450.709 L192.756,450.709 L192.756,282.978 L139.384,229.606 L42.52,229.606 L42.52,450.709 z"
               class="room"/>
         <path d="M120.972,340.658 C132.714,340.658 142.232,350.176 142.232,361.917 C142.232,373.659 132.714,383.177 120.972,383.177 C109.231,383.177 99.713,373.659 99.713,361.917 C99.713,350.176 109.231,340.658 120.972,340.658 z"
               class="waypoint"/>
         <path d="M198.425,382.677 L192.756,382.677 L192.756,340.158 L198.425,340.158 L198.425,382.677 z"
               class="door"/>
      </g>
      <g id="PH-OB-F0-R7">
         <path d="M42.52,677.48 L192.756,677.48 L192.756,456.378 L42.52,456.378 L42.52,677.48 z"
               class="room"/>
         <path d="M120.972,553.256 C132.714,553.256 142.232,562.774 142.232,574.516 C142.232,586.257 132.714,595.776 120.972,595.776 C109.231,595.776 99.713,586.257 99.713,574.516 C99.713,562.774 109.231,553.256 120.972,553.256 z"
               class="waypoint"/>
         <path d="M198.425,595.276 L192.756,595.276 L192.756,552.756 L198.425,552.756 L198.425,595.276 z"
               class="door"/>
      </g>
      <g id="PH-OB-F0-R6">
         <path d="M42.52,960.945 L192.756,960.945 L192.756,683.15 L42.52,683.15 L42.52,960.945 z"
               class="room"/>
         <path d="M120.972,822.547 C132.714,822.547 142.232,832.066 142.232,843.807 C142.232,855.549 132.714,865.067 120.972,865.067 C109.231,865.067 99.713,855.549 99.713,843.807 C99.713,832.066 109.231,822.547 120.972,822.547 z"
               class="waypoint"/>
         <path d="M198.425,864.567 L192.756,864.567 L192.756,822.047 L198.425,822.047 L198.425,864.567 z"
               class="door"/>
      </g>
      <g id="PH-OB-F0-R5">
         <path d="M42.52,1187.717 L139.384,1187.717 L192.756,1134.345 L192.756,966.614 L42.52,966.614 L42.52,1187.717 z"
               class="room"/>
         <path d="M120.972,1037.98 C132.714,1037.98 142.232,1047.499 142.232,1059.24 C142.232,1070.982 132.714,1080.5 120.972,1080.5 C109.231,1080.5 99.713,1070.982 99.713,1059.24 C99.713,1047.499 109.231,1037.98 120.972,1037.98 z"
               class="waypoint"/>
         <path d="M198.425,1080 L192.756,1080 L192.756,1037.48 L198.425,1037.48 L198.425,1080 z"
               class="door"/>
      </g>
      <g id="PH-OB-F0-R4">
         <path d="M450.709,1374.803 L450.709,1224.567 L282.978,1224.567 L229.606,1277.939 L229.606,1374.803 L450.709,1374.803 z"
               class="room"/>
         <path d="M340.658,1297.35 C340.658,1285.609 350.176,1276.091 361.917,1276.091 C373.659,1276.091 383.177,1285.609 383.177,1297.35 C383.177,1309.092 373.659,1318.61 361.917,1318.61 C350.176,1318.61 340.658,1309.092 340.658,1297.35 z"
               class="waypoint"/>
         <path d="M382.677,1218.898 L382.677,1224.567 L340.158,1224.567 L340.158,1218.898 L382.677,1218.898 z"
               class="door"/>
      </g>
      <g id="PH-OB-F0-R3">
         <path d="M677.48,1374.803 L677.48,1224.567 L456.378,1224.567 L456.378,1374.803 L677.48,1374.803 z"
               class="room"/>
         <path d="M553.256,1297.35 C553.256,1285.609 562.774,1276.091 574.516,1276.091 C586.257,1276.091 595.776,1285.609 595.776,1297.35 C595.776,1309.092 586.257,1318.61 574.516,1318.61 C562.774,1318.61 553.256,1309.092 553.256,1297.35 z"
               class="waypoint"/>
         <path d="M595.276,1218.898 L595.276,1224.567 L552.756,1224.567 L552.756,1218.898 L595.276,1218.898 z"
               class="door"/>
      </g>
      <g id="PH-OB-F0-R2">
         <path d="M960.945,1374.803 L960.945,1224.567 L683.15,1224.567 L683.15,1374.803 L960.945,1374.803 z"
               class="room"/>
         <path d="M822.547,1297.35 C822.547,1285.609 832.066,1276.091 843.807,1276.091 C855.549,1276.091 865.067,1285.609 865.067,1297.35 C865.067,1309.092 855.549,1318.61 843.807,1318.61 C832.066,1318.61 822.547,1309.092 822.547,1297.35 z"
               class="waypoint"/>
         <path d="M864.567,1218.898 L864.567,1224.567 L822.047,1224.567 L822.047,1218.898 L864.567,1218.898 z"
               class="door"/>
      </g>
      <g id="PH-OB-F0-R1">
         <path d="M1187.717,1374.803 L1187.717,1277.939 L1134.345,1224.567 L966.614,1224.567 L966.614,1374.803 L1187.717,1374.803 z"
               class="room"/>
         <path d="M1035.146,1297.35 C1035.146,1285.609 1044.664,1276.091 1056.406,1276.091 C1068.147,1276.091 1077.665,1285.609 1077.665,1297.35 C1077.665,1309.092 1068.147,1318.61 1056.406,1318.61 C1044.664,1318.61 1035.146,1309.092 1035.146,1297.35 z"
               class="waypoint"/>
         <path d="M1077.165,1218.898 L1077.165,1224.567 L1034.646,1224.567 L1034.646,1218.898 L1077.165,1218.898 z"
               class="door"/>
      </g>
  </g>
  <g id="F1">
      <g id="PH-OB-F1-East">
         <path d="M170.579,1389.476 L170.579,1318.61 L156.405,1318.61 L156.406,1261.917 L170.579,1261.917 L170.579,1247.744 L255.618,1162.705 L1162.705,1162.705 L1247.744,1247.744 L1247.744,1261.917 L1261.917,1261.917 L1261.917,1318.61 L1247.744,1318.61 L1247.744,1389.476 L170.579,1389.476 z"
               class="floor"/>
      </g>
      <g id="PH-OB-F1-North">
         <path d="M1389.476,1247.744 L1318.61,1247.744 L1318.61,1261.917 L1261.917,1261.917 L1261.917,1247.744 L1247.744,1247.744 L1162.705,1162.705 L1162.705,255.618 L1247.744,170.579 L1261.917,170.579 L1261.917,156.405 L1318.61,156.406 L1318.61,170.579 L1389.476,170.579 L1389.476,1247.744 z"
               class="floor"/>
      </g>
      <g id="PH-OB-F1-West">
         <path d="M1247.744,28.846 L1247.744,99.713 L1261.917,99.713 L1261.917,156.406 L1247.744,156.406 L1247.744,170.579 L1162.705,255.618 L255.618,255.618 L170.579,170.579 L170.579,156.406 L156.405,156.406 L156.406,99.713 L170.579,99.713 L170.579,28.846 L1247.744,28.846 z"
               class="floor"/>
      </g>
      <g id="PH-OB-F1-South">
         <path d="M28.846,170.579 L99.713,170.579 L99.713,156.405 L156.406,156.406 L156.406,170.579 L170.579,170.579 L255.618,255.618 L255.618,1162.705 L170.579,1247.744 L156.406,1247.744 L156.406,1261.917 L99.713,1261.917 L99.713,1247.744 L28.846,1247.744 L28.846,170.579 z"
               class="floor"/>
      </g>
      <g>
         <g>
            <path d="M156.406,156.406 L170.579,156.406 L170.579,170.579 L156.406,170.579 L156.406,156.406 z"
                  fill="#CCCC7F"/>
            <path d="M156.406,156.406 L170.579,156.406 L170.579,170.579 L156.406,170.579 L156.406,156.406 z"
                  fill-opacity="0"
                  stroke="#666635"
                  stroke-width="1"/>
         </g>
         <g>
            <path d="M170.579,0.5 L170.579,28.846 L1247.744,28.846 L1247.744,0.5 L1417.823,0.5 L1417.823,170.579 L1389.476,170.579 L1389.476,1247.744 L1417.823,1247.744 L1417.823,1417.823 L1247.744,1417.823 L1247.744,1389.476 L170.579,1389.476 L170.579,1417.823 L0.5,1417.823 L0.5,1247.744 L28.846,1247.744 L28.846,170.579 L0.5,170.579 L0.5,0.5 L170.579,0.5 z M156.405,14.673 L14.673,14.673 L14.673,156.406 L99.713,156.405 L99.713,170.579 L43.02,170.579 L43.02,1247.744 L99.713,1247.744 L99.713,1261.917 L43.02,1261.917 L14.673,1261.917 L14.673,1403.65 L156.405,1403.65 L156.405,1318.61 L170.579,1318.61 L170.579,1375.303 L1247.744,1375.303 L1247.744,1318.61 L1261.917,1318.61 L1261.917,1375.303 L1261.917,1403.65 L1403.65,1403.65 L1403.65,1261.917 L1389.476,1261.917 L1389.476,1261.917 L1375.303,1261.917 L1375.303,1261.917 L1318.61,1261.917 L1318.61,1247.744 L1375.303,1247.744 L1375.303,170.579 L1318.61,170.579 L1318.61,156.406 L1403.65,156.406 L1403.65,14.673 L1261.917,14.673 L1261.917,99.713 L1247.744,99.713 L1247.744,43.02 L170.579,43.02 L170.579,99.713 L156.406,99.713 L156.405,14.673 z"
                  fill="#CCCC7F"/>
            <path d="M170.579,0.5 L170.579,28.846 L1247.744,28.846 L1247.744,0.5 L1417.823,0.5 L1417.823,170.579 L1389.476,170.579 L1389.476,1247.744 L1417.823,1247.744 L1417.823,1417.823 L1247.744,1417.823 L1247.744,1389.476 L170.579,1389.476 L170.579,1417.823 L0.5,1417.823 L0.5,1247.744 L28.846,1247.744 L28.846,170.579 L0.5,170.579 L0.5,0.5 L170.579,0.5 z M156.405,14.673 L14.673,14.673 L14.673,156.406 L99.713,156.405 L99.713,170.579 L43.02,170.579 L43.02,1247.744 L99.713,1247.744 L99.713,1261.917 L43.02,1261.917 L14.673,1261.917 L14.673,1403.65 L156.405,1403.65 L156.405,1318.61 L170.579,1318.61 L170.579,1375.303 L1247.744,1375.303 L1247.744,1318.61 L1261.917,1318.61 L1261.917,1375.303 L1261.917,1403.65 L1403.65,1403.65 L1403.65,1261.917 L1389.476,1261.917 L1389.476,1261.917 L1375.303,1261.917 L1375.303,1261.917 L1318.61,1261.917 L1318.61,1247.744 L1375.303,1247.744 L1375.303,170.579 L1318.61,170.579 L1318.61,156.406 L1403.65,156.406 L1403.65,14.673 L1261.917,14.673 L1261.917,99.713 L1247.744,99.713 L1247.744,43.02 L170.579,43.02 L170.579,99.713 L156.406,99.713 L156.405,14.673 z"
                  fill-opacity="0"
                  stroke="#666635"
                  stroke-width="1"/>
         </g>
         <g>
            <path d="M156.406,1261.917 L156.406,1247.744 L170.579,1247.744 L170.579,1261.917 L156.406,1261.917 z"
                  fill="#CCCC7F"/>
            <path d="M156.406,1261.917 L156.406,1247.744 L170.579,1247.744 L170.579,1261.917 L156.406,1261.917 z"
                  fill-opacity="0"
                  stroke="#666635"
                  stroke-width="1"/>
         </g>
         <g>
            <path d="M1261.917,1261.917 L1247.744,1261.917 L1247.744,1247.744 L1261.917,1247.744 L1261.917,1261.917 z"
                  fill="#CCCC7F"/>
            <path d="M1261.917,1261.917 L1247.744,1261.917 L1247.744,1247.744 L1261.917,1247.744 L1261.917,1261.917 z"
                  fill-opacity="0"
                  stroke="#666635"
                  stroke-width="1"/>
         </g>
         <g>
            <path d="M1261.917,156.406 L1261.917,170.579 L1247.744,170.579 L1247.744,156.406 L1261.917,156.406 z"
                  fill="#CCCC7F"/>
            <path d="M1261.917,156.406 L1261.917,170.579 L1247.744,170.579 L1247.744,156.406 L1261.917,156.406 z"
                  fill-opacity="0"
                  stroke="#666635"
                  stroke-width="1"/>
         </g>
      </g>
    
    
    
    
      <g>
         <g>
            <path d="M224.437,43.02 L230.106,43.02 L230.106,139.884 L283.478,193.256 L337.823,193.256 L337.823,198.925 L281.13,198.925 L224.437,142.232 L224.437,43.02 z"
                  fill="#CCCC7F"/>
            <path d="M224.437,43.02 L230.106,43.02 L230.106,139.884 L283.478,193.256 L337.823,193.256 L337.823,198.925 L281.13,198.925 L224.437,142.232 L224.437,43.02 z"
                  fill-opacity="0"
                  stroke="#666635"
                  stroke-width="1"/>
         </g>
         <g>
            <path d="M1193.886,43.02 L1188.216,43.02 L1188.216,139.884 L1134.844,193.256 L1080.5,193.256 L1080.5,198.925 L1137.193,198.925 L1193.886,142.232 L1193.886,43.02 z"
                  fill="#CCCC7F"/>
            <path d="M1193.886,43.02 L1188.216,43.02 L1188.216,139.884 L1134.844,193.256 L1080.5,193.256 L1080.5,198.925 L1137.193,198.925 L1193.886,142.232 L1193.886,43.02 z"
                  fill-opacity="0"
                  stroke="#666635"
                  stroke-width="1"/>
         </g>
         <g>
            <path d="M595.776,198.925 L595.776,193.256 L734.673,193.256 L734.673,43.02 L740.343,43.02 L740.343,193.256 L822.547,193.256 L822.547,198.925 L595.776,198.925 z"
                  fill="#CCCC7F"/>
            <path d="M595.776,198.925 L595.776,193.256 L734.673,193.256 L734.673,43.02 L740.343,43.02 L740.343,193.256 L822.547,193.256 L822.547,198.925 L595.776,198.925 z"
                  fill-opacity="0"
                  stroke="#666635"
                  stroke-width="1"/>
         </g>
         <g>
            <path d="M865.067,198.925 L865.067,193.256 L961.445,193.256 L961.445,43.02 L967.114,43.02 L967.114,193.256 L1035.146,193.256 L1035.146,198.925 L865.067,198.925 z"
                  fill="#CCCC7F"/>
            <path d="M865.067,198.925 L865.067,193.256 L961.445,193.256 L961.445,43.02 L967.114,43.02 L967.114,193.256 L1035.146,193.256 L1035.146,198.925 L865.067,198.925 z"
                  fill-opacity="0"
                  stroke="#666635"
                  stroke-width="1"/>
         </g>
         <g>
            <path d="M383.177,198.925 L383.177,193.256 L451.209,193.256 L451.209,43.02 L456.878,43.02 L456.878,193.256 L553.256,193.256 L553.256,198.925 L383.177,198.925 z"
                  fill="#CCCC7F"/>
            <path d="M383.177,198.925 L383.177,193.256 L451.209,193.256 L451.209,43.02 L456.878,43.02 L456.878,193.256 L553.256,193.256 L553.256,198.925 L383.177,198.925 z"
                  fill-opacity="0"
                  stroke="#666635"
                  stroke-width="1"/>
         </g>
      </g>
      <g>
         <g>
            <path d="M43.02,1193.886 L43.02,1188.217 L139.884,1188.217 L193.256,1134.845 L193.256,1080.5 L198.925,1080.5 L198.925,1137.193 L142.232,1193.886 L43.02,1193.886 z"
                  fill="#CCCC7F"/>
            <path d="M43.02,1193.886 L43.02,1188.217 L139.884,1188.217 L193.256,1134.845 L193.256,1080.5 L198.925,1080.5 L198.925,1137.193 L142.232,1193.886 L43.02,1193.886 z"
                  fill-opacity="0"
                  stroke="#666635"
                  stroke-width="1"/>
         </g>
         <g>
            <path d="M43.02,224.437 L43.02,230.106 L139.884,230.106 L193.256,283.478 L193.256,337.823 L198.925,337.823 L198.925,281.13 L142.232,224.437 L43.02,224.437 z"
                  fill="#CCCC7F"/>
            <path d="M43.02,224.437 L43.02,230.106 L139.884,230.106 L193.256,283.478 L193.256,337.823 L198.925,337.823 L198.925,281.13 L142.232,224.437 L43.02,224.437 z"
                  fill-opacity="0"
                  stroke="#666635"
                  stroke-width="1"/>
         </g>
         <g>
            <path d="M198.925,822.547 L193.256,822.547 L193.256,683.65 L43.02,683.65 L43.02,677.98 L193.256,677.98 L193.256,595.776 L198.925,595.776 L198.925,822.547 z"
                  fill="#CCCC7F"/>
            <path d="M198.925,822.547 L193.256,822.547 L193.256,683.65 L43.02,683.65 L43.02,677.98 L193.256,677.98 L193.256,595.776 L198.925,595.776 L198.925,822.547 z"
                  fill-opacity="0"
                  stroke="#666635"
                  stroke-width="1"/>
         </g>
         <g>
            <path d="M198.925,553.256 L193.256,553.256 L193.256,456.878 L43.02,456.878 L43.02,451.209 L193.256,451.209 L193.256,383.177 L198.925,383.177 L198.925,553.256 z"
                  fill="#CCCC7F"/>
            <path d="M198.925,553.256 L193.256,553.256 L193.256,456.878 L43.02,456.878 L43.02,451.209 L193.256,451.209 L193.256,383.177 L198.925,383.177 L198.925,553.256 z"
                  fill-opacity="0"
                  stroke="#666635"
                  stroke-width="1"/>
         </g>
         <g>
            <path d="M198.925,1035.146 L193.256,1035.146 L193.256,967.114 L43.02,967.114 L43.02,961.445 L193.256,961.445 L193.256,865.067 L198.925,865.067 L198.925,1035.146 z"
                  fill="#CCCC7F"/>
            <path d="M198.925,1035.146 L193.256,1035.146 L193.256,967.114 L43.02,967.114 L43.02,961.445 L193.256,961.445 L193.256,865.067 L198.925,865.067 L198.925,1035.146 z"
                  fill-opacity="0"
                  stroke="#666635"
                  stroke-width="1"/>
         </g>
      </g>
      <g>
         <g>
            <path d="M1193.886,1375.303 L1188.217,1375.303 L1188.217,1278.439 L1134.845,1225.067 L1080.5,1225.067 L1080.5,1219.398 L1137.193,1219.398 L1193.886,1276.091 L1193.886,1375.303 z"
                  fill="#CCCC7F"/>
            <path d="M1193.886,1375.303 L1188.217,1375.303 L1188.217,1278.439 L1134.845,1225.067 L1080.5,1225.067 L1080.5,1219.398 L1137.193,1219.398 L1193.886,1276.091 L1193.886,1375.303 z"
                  fill-opacity="0"
                  stroke="#666635"
                  stroke-width="1"/>
         </g>
         <g>
            <path d="M224.437,1375.303 L230.106,1375.303 L230.106,1278.439 L283.478,1225.067 L337.823,1225.067 L337.823,1219.398 L281.13,1219.398 L224.437,1276.091 L224.437,1375.303 z"
                  fill="#CCCC7F"/>
            <path d="M224.437,1375.303 L230.106,1375.303 L230.106,1278.439 L283.478,1225.067 L337.823,1225.067 L337.823,1219.398 L281.13,1219.398 L224.437,1276.091 L224.437,1375.303 z"
                  fill-opacity="0"
                  stroke="#666635"
                  stroke-width="1"/>
         </g>
         <g>
            <path d="M822.547,1219.398 L822.547,1225.067 L683.65,1225.067 L683.65,1375.303 L677.98,1375.303 L677.98,1225.067 L595.776,1225.067 L595.776,1219.398 L822.547,1219.398 z"
                  fill="#CCCC7F"/>
            <path d="M822.547,1219.398 L822.547,1225.067 L683.65,1225.067 L683.65,1375.303 L677.98,1375.303 L677.98,1225.067 L595.776,1225.067 L595.776,1219.398 L822.547,1219.398 z"
                  fill-opacity="0"
                  stroke="#666635"
                  stroke-width="1"/>
         </g>
         <g>
            <path d="M553.256,1219.398 L553.256,1225.067 L456.878,1225.067 L456.878,1375.303 L451.209,1375.303 L451.209,1225.067 L383.177,1225.067 L383.177,1219.398 L553.256,1219.398 z"
                  fill="#CCCC7F"/>
            <path d="M553.256,1219.398 L553.256,1225.067 L456.878,1225.067 L456.878,1375.303 L451.209,1375.303 L451.209,1225.067 L383.177,1225.067 L383.177,1219.398 L553.256,1219.398 z"
                  fill-opacity="0"
                  stroke="#666635"
                  stroke-width="1"/>
         </g>
         <g>
            <path d="M1035.146,1219.398 L1035.146,1225.067 L967.114,1225.067 L967.114,1375.303 L961.445,1375.303 L961.445,1225.067 L865.067,1225.067 L865.067,1219.398 L1035.146,1219.398 z"
                  fill="#CCCC7F"/>
            <path d="M1035.146,1219.398 L1035.146,1225.067 L967.114,1225.067 L967.114,1375.303 L961.445,1375.303 L961.445,1225.067 L865.067,1225.067 L865.067,1219.398 L1035.146,1219.398 z"
                  fill-opacity="0"
                  stroke="#666635"
                  stroke-width="1"/>
         </g>
      </g>
      <g>
         <g>
            <path d="M1375.303,224.437 L1375.303,230.106 L1278.439,230.106 L1225.067,283.478 L1225.067,337.823 L1219.398,337.823 L1219.398,281.13 L1276.091,224.437 L1375.303,224.437 z"
                  fill="#CCCC7F"/>
            <path d="M1375.303,224.437 L1375.303,230.106 L1278.439,230.106 L1225.067,283.478 L1225.067,337.823 L1219.398,337.823 L1219.398,281.13 L1276.091,224.437 L1375.303,224.437 z"
                  fill-opacity="0"
                  stroke="#666635"
                  stroke-width="1"/>
         </g>
         <g>
            <path d="M1375.303,1193.886 L1375.303,1188.216 L1278.439,1188.216 L1225.067,1134.844 L1225.067,1080.5 L1219.398,1080.5 L1219.398,1137.193 L1276.091,1193.886 L1375.303,1193.886 z"
                  fill="#CCCC7F"/>
            <path d="M1375.303,1193.886 L1375.303,1188.216 L1278.439,1188.216 L1225.067,1134.844 L1225.067,1080.5 L1219.398,1080.5 L1219.398,1137.193 L1276.091,1193.886 L1375.303,1193.886 z"
                  fill-opacity="0"
                  stroke="#666635"
                  stroke-width="1"/>
         </g>
         <g>
            <path d="M1219.398,595.776 L1225.067,595.776 L1225.067,734.673 L1375.303,734.673 L1375.303,740.343 L1225.067,740.343 L1225.067,822.547 L1219.398,822.547 L1219.398,595.776 z"
                  fill="#CCCC7F"/>
            <path d="M1219.398,595.776 L1225.067,595.776 L1225.067,734.673 L1375.303,734.673 L1375.303,740.343 L1225.067,740.343 L1225.067,822.547 L1219.398,822.547 L1219.398,595.776 z"
                  fill-opacity="0"
                  stroke="#666635"
                  stroke-width="1"/>
         </g>
         <g>
            <path d="M1219.398,865.067 L1225.067,865.067 L1225.067,961.445 L1375.303,961.445 L1375.303,967.114 L1225.067,967.114 L1225.067,1035.146 L1219.398,1035.146 L1219.398,865.067 z"
                  fill="#CCCC7F"/>
            <path d="M1219.398,865.067 L1225.067,865.067 L1225.067,961.445 L1375.303,961.445 L1375.303,967.114 L1225.067,967.114 L1225.067,1035.146 L1219.398,1035.146 L1219.398,865.067 z"
                  fill-opacity="0"
                  stroke="#666635"
                  stroke-width="1"/>
         </g>
         <g>
            <path d="M1219.398,383.177 L1225.067,383.177 L1225.067,451.209 L1375.303,451.209 L1375.303,456.878 L1225.067,456.878 L1225.067,553.256 L1219.398,553.256 L1219.398,383.177 z"
                  fill="#CCCC7F"/>
            <path d="M1219.398,383.177 L1225.067,383.177 L1225.067,451.209 L1375.303,451.209 L1375.303,456.878 L1225.067,456.878 L1225.067,553.256 L1219.398,553.256 L1219.398,383.177 z"
                  fill-opacity="0"
                  stroke="#666635"
                  stroke-width="1"/>
         </g>
      </g>
      <g id="PH-OB-F1-R15">
         <path d="M1374.803,739.843 L1224.567,739.843 L1224.567,960.945 L1374.803,960.945 L1374.803,739.843 z"
               class="room"/>
         <path d="M1297.351,865.067 C1285.609,865.067 1276.091,855.549 1276.091,843.807 C1276.091,832.066 1285.609,822.547 1297.351,822.547 C1309.092,822.547 1318.61,832.066 1318.61,843.807 C1318.61,855.549 1309.092,865.067 1297.351,865.067 z"
               class="waypoint"/>
         <path d="M1218.898,822.047 L1224.567,822.047 L1224.567,864.567 L1218.898,864.567 L1218.898,822.047 z"
               class="door"/>
      </g>
      <g id="PH-OB-F1-R16">
         <path d="M1374.803,966.614 L1224.567,966.614 L1224.567,1134.344 L1277.939,1187.716 L1374.803,1187.716 L1374.803,966.614 z"
               class="room"/>
         <path d="M1297.35,1077.665 C1285.609,1077.665 1276.091,1068.147 1276.091,1056.406 C1276.091,1044.664 1285.609,1035.146 1297.35,1035.146 C1309.092,1035.146 1318.61,1044.664 1318.61,1056.406 C1318.61,1068.147 1309.092,1077.665 1297.35,1077.665 z"
               class="waypoint"/>
         <path d="M1218.898,1034.646 L1224.567,1034.646 L1224.567,1077.165 L1218.898,1077.165 L1218.898,1034.646 z"
               class="door"/>
      </g>
      <g id="PH-OB-F1-R12">
         <path d="M966.614,42.52 L966.614,192.756 L1134.344,192.756 L1187.716,139.384 L1187.716,42.52 L966.614,42.52 z"
               class="room"/>
         <path d="M1077.665,120.972 C1077.665,132.714 1068.147,142.232 1056.406,142.232 C1044.664,142.232 1035.146,132.714 1035.146,120.972 C1035.146,109.231 1044.664,99.713 1056.406,99.713 C1068.147,99.713 1077.665,109.231 1077.665,120.972 z"
               class="waypoint"/>
         <path d="M1034.646,198.425 L1034.646,192.756 L1077.165,192.756 L1077.165,198.425 L1034.646,198.425 z"
               class="door"/>
      </g>
      <g id="PH-OB-F1-R11">
         <path d="M739.843,42.52 L739.843,192.756 L960.945,192.756 L960.945,42.52 L739.843,42.52 z"
               class="room"/>
         <path d="M865.067,120.972 C865.067,132.714 855.549,142.232 843.807,142.232 C832.066,142.232 822.547,132.714 822.547,120.972 C822.547,109.231 832.066,99.713 843.807,99.713 C855.549,99.713 865.067,109.231 865.067,120.972 z"
               class="waypoint"/>
         <path d="M822.047,198.425 L822.047,192.756 L864.567,192.756 L864.567,198.425 L822.047,198.425 z"
               class="door"/>
      </g>
      <g id="PH-OB-F1-R10">
         <path d="M456.378,42.52 L456.378,192.756 L734.173,192.756 L734.173,42.52 L456.378,42.52 z"
               class="room"/>
         <path d="M595.776,120.972 C595.776,132.714 586.257,142.232 574.516,142.232 C562.774,142.232 553.256,132.714 553.256,120.972 C553.256,109.231 562.774,99.713 574.516,99.713 C586.257,99.713 595.776,109.231 595.776,120.972 z"
               class="waypoint"/>
         <path d="M552.756,198.425 L552.756,192.756 L595.276,192.756 L595.276,198.425 L552.756,198.425 z"
               class="door"/>
      </g>
      <g id="PH-OB-F1-R9">
         <path d="M229.606,42.52 L229.606,139.384 L282.978,192.756 L450.709,192.756 L450.709,42.52 L229.606,42.52 z"
               class="room"/>
         <path d="M383.177,120.972 C383.177,132.714 373.659,142.232 361.917,142.232 C350.176,142.232 340.658,132.714 340.658,120.972 C340.658,109.231 350.176,99.713 361.917,99.713 C373.659,99.713 383.177,109.231 383.177,120.972 z"
               class="waypoint"/>
         <path d="M340.158,198.425 L340.158,192.756 L382.677,192.756 L382.677,198.425 L340.158,198.425 z"
               class="door"/>
      </g>
      <g id="PH-OB-F1-R8">
         <path d="M42.52,450.709 L192.756,450.709 L192.756,282.978 L139.384,229.606 L42.52,229.606 L42.52,450.709 z"
               class="room"/>
         <path d="M120.972,340.658 C132.714,340.658 142.232,350.176 142.232,361.917 C142.232,373.659 132.714,383.177 120.972,383.177 C109.231,383.177 99.713,373.659 99.713,361.917 C99.713,350.176 109.231,340.658 120.972,340.658 z"
               class="waypoint"/>
         <path d="M198.425,382.677 L192.756,382.677 L192.756,340.158 L198.425,340.158 L198.425,382.677 z"
               class="door"/>
      </g>
      <g id="PH-OB-F1-R7">
         <path d="M42.52,677.48 L192.756,677.48 L192.756,456.378 L42.52,456.378 L42.52,677.48 z"
               class="room"/>
         <path d="M120.972,553.256 C132.714,553.256 142.232,562.774 142.232,574.516 C142.232,586.257 132.714,595.776 120.972,595.776 C109.231,595.776 99.713,586.257 99.713,574.516 C99.713,562.774 109.231,553.256 120.972,553.256 z"
               class="waypoint"/>
         <path d="M198.425,595.276 L192.756,595.276 L192.756,552.756 L198.425,552.756 L198.425,595.276 z"
               class="door"/>
      </g>
      <g id="PH-OB-F1-R6">
         <path d="M42.52,960.945 L192.756,960.945 L192.756,683.15 L42.52,683.15 L42.52,960.945 z"
               class="room"/>
         <path d="M120.972,822.547 C132.714,822.547 142.232,832.066 142.232,843.807 C142.232,855.549 132.714,865.067 120.972,865.067 C109.231,865.067 99.713,855.549 99.713,843.807 C99.713,832.066 109.231,822.547 120.972,822.547 z"
               class="waypoint"/>
         <path d="M198.425,864.567 L192.756,864.567 L192.756,822.047 L198.425,822.047 L198.425,864.567 z"
               class="door"/>
      </g>
      <g id="PH-OB-F1-R5">
         <path d="M42.52,1187.717 L139.384,1187.717 L192.756,1134.345 L192.756,966.614 L42.52,966.614 L42.52,1187.717 z"
               class="room"/>
         <path d="M120.972,1037.98 C132.714,1037.98 142.232,1047.499 142.232,1059.24 C142.232,1070.982 132.714,1080.5 120.972,1080.5 C109.231,1080.5 99.713,1070.982 99.713,1059.24 C99.713,1047.499 109.231,1037.98 120.972,1037.98 z"
               class="waypoint"/>
         <path d="M198.425,1080 L192.756,1080 L192.756,1037.48 L198.425,1037.48 L198.425,1080 z"
               class="door"/>
      </g>
      <g id="PH-OB-F1-R4">
         <path d="M450.709,1374.803 L450.709,1224.567 L282.978,1224.567 L229.606,1277.939 L229.606,1374.803 L450.709,1374.803 z"
               class="room"/>
         <path d="M340.658,1297.35 C340.658,1285.609 350.176,1276.091 361.917,1276.091 C373.659,1276.091 383.177,1285.609 383.177,1297.35 C383.177,1309.092 373.659,1318.61 361.917,1318.61 C350.176,1318.61 340.658,1309.092 340.658,1297.35 z"
               class="waypoint"/>
         <path d="M382.677,1218.898 L382.677,1224.567 L340.158,1224.567 L340.158,1218.898 L382.677,1218.898 z"
               class="door"/>
      </g>
      <g id="PH-OB-F1-R3">
         <path d="M677.48,1374.803 L677.48,1224.567 L456.378,1224.567 L456.378,1374.803 L677.48,1374.803 z"
               class="room"/>
         <path d="M553.256,1297.35 C553.256,1285.609 562.774,1276.091 574.516,1276.091 C586.257,1276.091 595.776,1285.609 595.776,1297.35 C595.776,1309.092 586.257,1318.61 574.516,1318.61 C562.774,1318.61 553.256,1309.092 553.256,1297.35 z"
               class="waypoint"/>
         <path d="M595.276,1218.898 L595.276,1224.567 L552.756,1224.567 L552.756,1218.898 L595.276,1218.898 z"
               class="door"/>
      </g>
      <g id="PH-OB-F1-R2">
         <path d="M960.945,1374.803 L960.945,1224.567 L683.15,1224.567 L683.15,1374.803 L960.945,1374.803 z"
               class="room"/>
         <path d="M822.547,1297.35 C822.547,1285.609 832.066,1276.091 843.807,1276.091 C855.549,1276.091 865.067,1285.609 865.067,1297.35 C865.067,1309.092 855.549,1318.61 843.807,1318.61 C832.066,1318.61 822.547,1309.092 822.547,1297.35 z"
               class="waypoint"/>
         <path d="M864.567,1218.898 L864.567,1224.567 L822.047,1224.567 L822.047,1218.898 L864.567,1218.898 z"
               class="door"/>
      </g>
      <g id="PH-OB-F1-R1">
         <path d="M1187.717,1374.803 L1187.717,1277.939 L1134.345,1224.567 L966.614,1224.567 L966.614,1374.803 L1187.717,1374.803 z"
               class="room"/>
         <path d="M1035.146,1297.35 C1035.146,1285.609 1044.664,1276.091 1056.406,1276.091 C1068.147,1276.091 1077.665,1285.609 1077.665,1297.35 C1077.665,1309.092 1068.147,1318.61 1056.406,1318.61 C1044.664,1318.61 1035.146,1309.092 1035.146,1297.35 z"
               class="waypoint"/>
         <path d="M1077.165,1218.898 L1077.165,1224.567 L1034.646,1224.567 L1034.646,1218.898 L1077.165,1218.898 z"
               class="door"/>
      </g>
      <g id="PH-OB-F1-R13">
         <path d="M1374.803,229.606 L1277.939,229.606 L1224.567,282.978 L1224.567,450.709 L1374.803,450.709 L1374.803,229.606 z"
               class="room"/>
         <path d="M1297.35,383.177 C1285.609,383.177 1276.091,373.659 1276.091,361.917 C1276.091,350.176 1285.609,340.658 1297.35,340.658 C1309.092,340.658 1318.61,350.176 1318.61,361.917 C1318.61,373.659 1309.092,383.177 1297.35,383.177 z"
               class="waypoint"/>
         <path d="M1218.898,340.158 L1224.567,340.158 L1224.567,382.677 L1218.898,382.677 L1218.898,340.158 z"
               class="door"/>
      </g>
      <g id="PH-OB-F1-R14">
         <path d="M1374.803,456.378 L1224.567,456.378 L1224.567,734.173 L1374.803,734.173 L1374.803,456.378 z"
               class="room"/>
         <path d="M1297.35,595.776 C1285.609,595.776 1276.091,586.257 1276.091,574.516 C1276.091,562.774 1285.609,553.256 1297.35,553.256 C1309.092,553.256 1318.61,562.774 1318.61,574.516 C1318.61,586.257 1309.092,595.776 1297.35,595.776 z"
               class="waypoint"/>
         <path d="M1218.898,552.756 L1224.567,552.756 L1224.567,595.276 L1218.898,595.276 L1218.898,552.756 z"
               class="door"/>
      </g>
  </g>
  <g id="F2">
      <g id="PH-OB-F2-East">
         <path d="M170.579,1389.476 L170.579,1318.61 L156.405,1318.61 L156.406,1261.917 L170.579,1261.917 L170.579,1247.744 L255.618,1162.705 L1162.705,1162.705 L1247.744,1247.744 L1247.744,1261.917 L1261.917,1261.917 L1261.917,1318.61 L1247.744,1318.61 L1247.744,1389.476 L170.579,1389.476 z"
               class="floor"/>
      </g>
      <g id="PH-OB-F2-North">
         <path d="M1389.476,1247.744 L1318.61,1247.744 L1318.61,1261.917 L1261.917,1261.917 L1261.917,1247.744 L1247.744,1247.744 L1162.705,1162.705 L1162.705,255.618 L1247.744,170.579 L1261.917,170.579 L1261.917,156.405 L1318.61,156.406 L1318.61,170.579 L1389.476,170.579 L1389.476,1247.744 z"
               class="floor"/>
      </g>
      <g id="PH-OB-F2-West">
         <path d="M1247.744,28.846 L1247.744,99.713 L1261.917,99.713 L1261.917,156.406 L1247.744,156.406 L1247.744,170.579 L1162.705,255.618 L255.618,255.618 L170.579,170.579 L170.579,156.406 L156.405,156.406 L156.406,99.713 L170.579,99.713 L170.579,28.846 L1247.744,28.846 z"
               class="floor"/>
      </g>
      <g id="PH-OB-F2-South">
         <path d="M28.846,170.579 L99.713,170.579 L99.713,156.405 L156.406,156.406 L156.406,170.579 L170.579,170.579 L255.618,255.618 L255.618,1162.705 L170.579,1247.744 L156.406,1247.744 L156.406,1261.917 L99.713,1261.917 L99.713,1247.744 L28.846,1247.744 L28.846,170.579 z"
               class="floor"/>
      </g>
      <g>
         <g>
            <path d="M156.406,156.406 L170.579,156.406 L170.579,170.579 L156.406,170.579 L156.406,156.406 z"
                  fill="#CCCC7F"/>
            <path d="M156.406,156.406 L170.579,156.406 L170.579,170.579 L156.406,170.579 L156.406,156.406 z"
                  fill-opacity="0"
                  stroke="#666635"
                  stroke-width="1"/>
         </g>
         <g>
            <path d="M170.579,0.5 L170.579,28.846 L1247.744,28.846 L1247.744,0.5 L1417.823,0.5 L1417.823,170.579 L1389.476,170.579 L1389.476,1247.744 L1417.823,1247.744 L1417.823,1417.823 L1247.744,1417.823 L1247.744,1389.476 L170.579,1389.476 L170.579,1417.823 L0.5,1417.823 L0.5,1247.744 L28.846,1247.744 L28.846,170.579 L0.5,170.579 L0.5,0.5 L170.579,0.5 z M156.405,14.673 L14.673,14.673 L14.673,156.406 L99.713,156.405 L99.713,170.579 L43.02,170.579 L43.02,1247.744 L99.713,1247.744 L99.713,1261.917 L43.02,1261.917 L14.673,1261.917 L14.673,1403.65 L156.405,1403.65 L156.405,1318.61 L170.579,1318.61 L170.579,1375.303 L1247.744,1375.303 L1247.744,1318.61 L1261.917,1318.61 L1261.917,1375.303 L1261.917,1403.65 L1403.65,1403.65 L1403.65,1261.917 L1389.476,1261.917 L1389.476,1261.917 L1375.303,1261.917 L1375.303,1261.917 L1318.61,1261.917 L1318.61,1247.744 L1375.303,1247.744 L1375.303,170.579 L1318.61,170.579 L1318.61,156.406 L1403.65,156.406 L1403.65,14.673 L1261.917,14.673 L1261.917,99.713 L1247.744,99.713 L1247.744,43.02 L170.579,43.02 L170.579,99.713 L156.406,99.713 L156.405,14.673 z"
                  fill="#CCCC7F"/>
            <path d="M170.579,0.5 L170.579,28.846 L1247.744,28.846 L1247.744,0.5 L1417.823,0.5 L1417.823,170.579 L1389.476,170.579 L1389.476,1247.744 L1417.823,1247.744 L1417.823,1417.823 L1247.744,1417.823 L1247.744,1389.476 L170.579,1389.476 L170.579,1417.823 L0.5,1417.823 L0.5,1247.744 L28.846,1247.744 L28.846,170.579 L0.5,170.579 L0.5,0.5 L170.579,0.5 z M156.405,14.673 L14.673,14.673 L14.673,156.406 L99.713,156.405 L99.713,170.579 L43.02,170.579 L43.02,1247.744 L99.713,1247.744 L99.713,1261.917 L43.02,1261.917 L14.673,1261.917 L14.673,1403.65 L156.405,1403.65 L156.405,1318.61 L170.579,1318.61 L170.579,1375.303 L1247.744,1375.303 L1247.744,1318.61 L1261.917,1318.61 L1261.917,1375.303 L1261.917,1403.65 L1403.65,1403.65 L1403.65,1261.917 L1389.476,1261.917 L1389.476,1261.917 L1375.303,1261.917 L1375.303,1261.917 L1318.61,1261.917 L1318.61,1247.744 L1375.303,1247.744 L1375.303,170.579 L1318.61,170.579 L1318.61,156.406 L1403.65,156.406 L1403.65,14.673 L1261.917,14.673 L1261.917,99.713 L1247.744,99.713 L1247.744,43.02 L170.579,43.02 L170.579,99.713 L156.406,99.713 L156.405,14.673 z"
                  fill-opacity="0"
                  stroke="#666635"
                  stroke-width="1"/>
         </g>
         <g>
            <path d="M156.406,1261.917 L156.406,1247.744 L170.579,1247.744 L170.579,1261.917 L156.406,1261.917 z"
                  fill="#CCCC7F"/>
            <path d="M156.406,1261.917 L156.406,1247.744 L170.579,1247.744 L170.579,1261.917 L156.406,1261.917 z"
                  fill-opacity="0"
                  stroke="#666635"
                  stroke-width="1"/>
         </g>
         <g>
            <path d="M1261.917,1261.917 L1247.744,1261.917 L1247.744,1247.744 L1261.917,1247.744 L1261.917,1261.917 z"
                  fill="#CCCC7F"/>
            <path d="M1261.917,1261.917 L1247.744,1261.917 L1247.744,1247.744 L1261.917,1247.744 L1261.917,1261.917 z"
                  fill-opacity="0"
                  stroke="#666635"
                  stroke-width="1"/>
         </g>
         <g>
            <path d="M1261.917,156.406 L1261.917,170.579 L1247.744,170.579 L1247.744,156.406 L1261.917,156.406 z"
                  fill="#CCCC7F"/>
            <path d="M1261.917,156.406 L1261.917,170.579 L1247.744,170.579 L1247.744,156.406 L1261.917,156.406 z"
                  fill-opacity="0"
                  stroke="#666635"
                  stroke-width="1"/>
         </g>
      </g>
    
    
    
    
      <g>
         <g>
            <path d="M224.437,43.02 L230.106,43.02 L230.106,139.884 L283.478,193.256 L337.823,193.256 L337.823,198.925 L281.13,198.925 L224.437,142.232 L224.437,43.02 z"
                  fill="#CCCC7F"/>
            <path d="M224.437,43.02 L230.106,43.02 L230.106,139.884 L283.478,193.256 L337.823,193.256 L337.823,198.925 L281.13,198.925 L224.437,142.232 L224.437,43.02 z"
                  fill-opacity="0"
                  stroke="#666635"
                  stroke-width="1"/>
         </g>
         <g>
            <path d="M1193.886,43.02 L1188.216,43.02 L1188.216,139.884 L1134.844,193.256 L1080.5,193.256 L1080.5,198.925 L1137.193,198.925 L1193.886,142.232 L1193.886,43.02 z"
                  fill="#CCCC7F"/>
            <path d="M1193.886,43.02 L1188.216,43.02 L1188.216,139.884 L1134.844,193.256 L1080.5,193.256 L1080.5,198.925 L1137.193,198.925 L1193.886,142.232 L1193.886,43.02 z"
                  fill-opacity="0"
                  stroke="#666635"
                  stroke-width="1"/>
         </g>
         <g>
            <path d="M595.776,198.925 L595.776,193.256 L734.673,193.256 L734.673,43.02 L740.343,43.02 L740.343,193.256 L822.547,193.256 L822.547,198.925 L595.776,198.925 z"
                  fill="#CCCC7F"/>
            <path d="M595.776,198.925 L595.776,193.256 L734.673,193.256 L734.673,43.02 L740.343,43.02 L740.343,193.256 L822.547,193.256 L822.547,198.925 L595.776,198.925 z"
                  fill-opacity="0"
                  stroke="#666635"
                  stroke-width="1"/>
         </g>
         <g>
            <path d="M865.067,198.925 L865.067,193.256 L961.445,193.256 L961.445,43.02 L967.114,43.02 L967.114,193.256 L1035.146,193.256 L1035.146,198.925 L865.067,198.925 z"
                  fill="#CCCC7F"/>
            <path d="M865.067,198.925 L865.067,193.256 L961.445,193.256 L961.445,43.02 L967.114,43.02 L967.114,193.256 L1035.146,193.256 L1035.146,198.925 L865.067,198.925 z"
                  fill-opacity="0"
                  stroke="#666635"
                  stroke-width="1"/>
         </g>
         <g>
            <path d="M383.177,198.925 L383.177,193.256 L451.209,193.256 L451.209,43.02 L456.878,43.02 L456.878,193.256 L553.256,193.256 L553.256,198.925 L383.177,198.925 z"
                  fill="#CCCC7F"/>
            <path d="M383.177,198.925 L383.177,193.256 L451.209,193.256 L451.209,43.02 L456.878,43.02 L456.878,193.256 L553.256,193.256 L553.256,198.925 L383.177,198.925 z"
                  fill-opacity="0"
                  stroke="#666635"
                  stroke-width="1"/>
         </g>
      </g>
      <g>
         <g>
            <path d="M43.02,1193.886 L43.02,1188.217 L139.884,1188.217 L193.256,1134.845 L193.256,1080.5 L198.925,1080.5 L198.925,1137.193 L142.232,1193.886 L43.02,1193.886 z"
                  fill="#CCCC7F"/>
            <path d="M43.02,1193.886 L43.02,1188.217 L139.884,1188.217 L193.256,1134.845 L193.256,1080.5 L198.925,1080.5 L198.925,1137.193 L142.232,1193.886 L43.02,1193.886 z"
                  fill-opacity="0"
                  stroke="#666635"
                  stroke-width="1"/>
         </g>
         <g>
            <path d="M43.02,224.437 L43.02,230.106 L139.884,230.106 L193.256,283.478 L193.256,337.823 L198.925,337.823 L198.925,281.13 L142.232,224.437 L43.02,224.437 z"
                  fill="#CCCC7F"/>
            <path d="M43.02,224.437 L43.02,230.106 L139.884,230.106 L193.256,283.478 L193.256,337.823 L198.925,337.823 L198.925,281.13 L142.232,224.437 L43.02,224.437 z"
                  fill-opacity="0"
                  stroke="#666635"
                  stroke-width="1"/>
         </g>
         <g>
            <path d="M198.925,822.547 L193.256,822.547 L193.256,683.65 L43.02,683.65 L43.02,677.98 L193.256,677.98 L193.256,595.776 L198.925,595.776 L198.925,822.547 z"
                  fill="#CCCC7F"/>
            <path d="M198.925,822.547 L193.256,822.547 L193.256,683.65 L43.02,683.65 L43.02,677.98 L193.256,677.98 L193.256,595.776 L198.925,595.776 L198.925,822.547 z"
                  fill-opacity="0"
                  stroke="#666635"
                  stroke-width="1"/>
         </g>
         <g>
            <path d="M198.925,553.256 L193.256,553.256 L193.256,456.878 L43.02,456.878 L43.02,451.209 L193.256,451.209 L193.256,383.177 L198.925,383.177 L198.925,553.256 z"
                  fill="#CCCC7F"/>
            <path d="M198.925,553.256 L193.256,553.256 L193.256,456.878 L43.02,456.878 L43.02,451.209 L193.256,451.209 L193.256,383.177 L198.925,383.177 L198.925,553.256 z"
                  fill-opacity="0"
                  stroke="#666635"
                  stroke-width="1"/>
         </g>
         <g>
            <path d="M198.925,1035.146 L193.256,1035.146 L193.256,967.114 L43.02,967.114 L43.02,961.445 L193.256,961.445 L193.256,865.067 L198.925,865.067 L198.925,1035.146 z"
                  fill="#CCCC7F"/>
            <path d="M198.925,1035.146 L193.256,1035.146 L193.256,967.114 L43.02,967.114 L43.02,961.445 L193.256,961.445 L193.256,865.067 L198.925,865.067 L198.925,1035.146 z"
                  fill-opacity="0"
                  stroke="#666635"
                  stroke-width="1"/>
         </g>
      </g>
      <g>
         <g>
            <path d="M1193.886,1375.303 L1188.217,1375.303 L1188.217,1278.439 L1134.845,1225.067 L1080.5,1225.067 L1080.5,1219.398 L1137.193,1219.398 L1193.886,1276.091 L1193.886,1375.303 z"
                  fill="#CCCC7F"/>
            <path d="M1193.886,1375.303 L1188.217,1375.303 L1188.217,1278.439 L1134.845,1225.067 L1080.5,1225.067 L1080.5,1219.398 L1137.193,1219.398 L1193.886,1276.091 L1193.886,1375.303 z"
                  fill-opacity="0"
                  stroke="#666635"
                  stroke-width="1"/>
         </g>
         <g>
            <path d="M224.437,1375.303 L230.106,1375.303 L230.106,1278.439 L283.478,1225.067 L337.823,1225.067 L337.823,1219.398 L281.13,1219.398 L224.437,1276.091 L224.437,1375.303 z"
                  fill="#CCCC7F"/>
            <path d="M224.437,1375.303 L230.106,1375.303 L230.106,1278.439 L283.478,1225.067 L337.823,1225.067 L337.823,1219.398 L281.13,1219.398 L224.437,1276.091 L224.437,1375.303 z"
                  fill-opacity="0"
                  stroke="#666635"
                  stroke-width="1"/>
         </g>
         <g>
            <path d="M822.547,1219.398 L822.547,1225.067 L683.65,1225.067 L683.65,1375.303 L677.98,1375.303 L677.98,1225.067 L595.776,1225.067 L595.776,1219.398 L822.547,1219.398 z"
                  fill="#CCCC7F"/>
            <path d="M822.547,1219.398 L822.547,1225.067 L683.65,1225.067 L683.65,1375.303 L677.98,1375.303 L677.98,1225.067 L595.776,1225.067 L595.776,1219.398 L822.547,1219.398 z"
                  fill-opacity="0"
                  stroke="#666635"
                  stroke-width="1"/>
         </g>
         <g>
            <path d="M553.256,1219.398 L553.256,1225.067 L456.878,1225.067 L456.878,1375.303 L451.209,1375.303 L451.209,1225.067 L383.177,1225.067 L383.177,1219.398 L553.256,1219.398 z"
                  fill="#CCCC7F"/>
            <path d="M553.256,1219.398 L553.256,1225.067 L456.878,1225.067 L456.878,1375.303 L451.209,1375.303 L451.209,1225.067 L383.177,1225.067 L383.177,1219.398 L553.256,1219.398 z"
                  fill-opacity="0"
                  stroke="#666635"
                  stroke-width="1"/>
         </g>
         <g>
            <path d="M1035.146,1219.398 L1035.146,1225.067 L967.114,1225.067 L967.114,1375.303 L961.445,1375.303 L961.445,1225.067 L865.067,1225.067 L865.067,1219.398 L1035.146,1219.398 z"
                  fill="#CCCC7F"/>
            <path d="M1035.146,1219.398 L1035.146,1225.067 L967.114,1225.067 L967.114,1375.303 L961.445,1375.303 L961.445,1225.067 L865.067,1225.067 L865.067,1219.398 L1035.146,1219.398 z"
                  fill-opacity="0"
                  stroke="#666635"
                  stroke-width="1"/>
         </g>
      </g>
      <g>
         <g>
            <path d="M1375.303,224.437 L1375.303,230.106 L1278.439,230.106 L1225.067,283.478 L1225.067,337.823 L1219.398,337.823 L1219.398,281.13 L1276.091,224.437 L1375.303,224.437 z"
                  fill="#CCCC7F"/>
            <path d="M1375.303,224.437 L1375.303,230.106 L1278.439,230.106 L1225.067,283.478 L1225.067,337.823 L1219.398,337.823 L1219.398,281.13 L1276.091,224.437 L1375.303,224.437 z"
                  fill-opacity="0"
                  stroke="#666635"
                  stroke-width="1"/>
         </g>
         <g>
            <path d="M1375.303,1193.886 L1375.303,1188.216 L1278.439,1188.216 L1225.067,1134.844 L1225.067,1080.5 L1219.398,1080.5 L1219.398,1137.193 L1276.091,1193.886 L1375.303,1193.886 z"
                  fill="#CCCC7F"/>
            <path d="M1375.303,1193.886 L1375.303,1188.216 L1278.439,1188.216 L1225.067,1134.844 L1225.067,1080.5 L1219.398,1080.5 L1219.398,1137.193 L1276.091,1193.886 L1375.303,1193.886 z"
                  fill-opacity="0"
                  stroke="#666635"
                  stroke-width="1"/>
         </g>
         <g>
            <path d="M1219.398,595.776 L1225.067,595.776 L1225.067,734.673 L1375.303,734.673 L1375.303,740.343 L1225.067,740.343 L1225.067,822.547 L1219.398,822.547 L1219.398,595.776 z"
                  fill="#CCCC7F"/>
            <path d="M1219.398,595.776 L1225.067,595.776 L1225.067,734.673 L1375.303,734.673 L1375.303,740.343 L1225.067,740.343 L1225.067,822.547 L1219.398,822.547 L1219.398,595.776 z"
                  fill-opacity="0"
                  stroke="#666635"
                  stroke-width="1"/>
         </g>
         <g>
            <path d="M1219.398,865.067 L1225.067,865.067 L1225.067,961.445 L1375.303,961.445 L1375.303,967.114 L1225.067,967.114 L1225.067,1035.146 L1219.398,1035.146 L1219.398,865.067 z"
                  fill="#CCCC7F"/>
            <path d="M1219.398,865.067 L1225.067,865.067 L1225.067,961.445 L1375.303,961.445 L1375.303,967.114 L1225.067,967.114 L1225.067,1035.146 L1219.398,1035.146 L1219.398,865.067 z"
                  fill-opacity="0"
                  stroke="#666635"
                  stroke-width="1"/>
         </g>
         <g>
            <path d="M1219.398,383.177 L1225.067,383.177 L1225.067,451.209 L1375.303,451.209 L1375.303,456.878 L1225.067,456.878 L1225.067,553.256 L1219.398,553.256 L1219.398,383.177 z"
                  fill="#CCCC7F"/>
            <path d="M1219.398,383.177 L1225.067,383.177 L1225.067,451.209 L1375.303,451.209 L1375.303,456.878 L1225.067,456.878 L1225.067,553.256 L1219.398,553.256 L1219.398,383.177 z"
                  fill-opacity="0"
                  stroke="#666635"
                  stroke-width="1"/>
         </g>
      </g>
      <g id="PH-OB-F2-R15">
         <path d="M1374.803,739.843 L1224.567,739.843 L1224.567,960.945 L1374.803,960.945 L1374.803,739.843 z"
               class="room"/>
         <path d="M1297.351,865.067 C1285.609,865.067 1276.091,855.549 1276.091,843.807 C1276.091,832.066 1285.609,822.547 1297.351,822.547 C1309.092,822.547 1318.61,832.066 1318.61,843.807 C1318.61,855.549 1309.092,865.067 1297.351,865.067 z"
               class="waypoint"/>
         <path d="M1218.898,822.047 L1224.567,822.047 L1224.567,864.567 L1218.898,864.567 L1218.898,822.047 z"
               class="door"/>
      </g>
      <g id="PH-OB-F2-R16">
         <path d="M1374.803,966.614 L1224.567,966.614 L1224.567,1134.344 L1277.939,1187.716 L1374.803,1187.716 L1374.803,966.614 z"
               class="room"/>
         <path d="M1297.35,1077.665 C1285.609,1077.665 1276.091,1068.147 1276.091,1056.406 C1276.091,1044.664 1285.609,1035.146 1297.35,1035.146 C1309.092,1035.146 1318.61,1044.664 1318.61,1056.406 C1318.61,1068.147 1309.092,1077.665 1297.35,1077.665 z"
               class="waypoint"/>
         <path d="M1218.898,1034.646 L1224.567,1034.646 L1224.567,1077.165 L1218.898,1077.165 L1218.898,1034.646 z"
               class="door"/>
      </g>
      <g id="PH-OB-F2-R12">
         <path d="M966.614,42.52 L966.614,192.756 L1134.344,192.756 L1187.716,139.384 L1187.716,42.52 L966.614,42.52 z"
               class="room"/>
         <path d="M1077.665,120.972 C1077.665,132.714 1068.147,142.232 1056.406,142.232 C1044.664,142.232 1035.146,132.714 1035.146,120.972 C1035.146,109.231 1044.664,99.713 1056.406,99.713 C1068.147,99.713 1077.665,109.231 1077.665,120.972 z"
               class="waypoint"/>
         <path d="M1034.646,198.425 L1034.646,192.756 L1077.165,192.756 L1077.165,198.425 L1034.646,198.425 z"
               class="door"/>
      </g>
      <g id="PH-OB-F2-R11">
         <path d="M739.843,42.52 L739.843,192.756 L960.945,192.756 L960.945,42.52 L739.843,42.52 z"
               class="room"/>
         <path d="M865.067,120.972 C865.067,132.714 855.549,142.232 843.807,142.232 C832.066,142.232 822.547,132.714 822.547,120.972 C822.547,109.231 832.066,99.713 843.807,99.713 C855.549,99.713 865.067,109.231 865.067,120.972 z"
               class="waypoint"/>
         <path d="M822.047,198.425 L822.047,192.756 L864.567,192.756 L864.567,198.425 L822.047,198.425 z"
               class="door"/>
      </g>
      <g id="PH-OB-F2-R10">
         <path d="M456.378,42.52 L456.378,192.756 L734.173,192.756 L734.173,42.52 L456.378,42.52 z"
               class="room"/>
         <path d="M595.776,120.972 C595.776,132.714 586.257,142.232 574.516,142.232 C562.774,142.232 553.256,132.714 553.256,120.972 C553.256,109.231 562.774,99.713 574.516,99.713 C586.257,99.713 595.776,109.231 595.776,120.972 z"
               class="waypoint"/>
         <path d="M552.756,198.425 L552.756,192.756 L595.276,192.756 L595.276,198.425 L552.756,198.425 z"
               class="door"/>
      </g>
      <g id="PH-OB-F2-R9">
         <path d="M229.606,42.52 L229.606,139.384 L282.978,192.756 L450.709,192.756 L450.709,42.52 L229.606,42.52 z"
               class="room"/>
         <path d="M383.177,120.972 C383.177,132.714 373.659,142.232 361.917,142.232 C350.176,142.232 340.658,132.714 340.658,120.972 C340.658,109.231 350.176,99.713 361.917,99.713 C373.659,99.713 383.177,109.231 383.177,120.972 z"
               class="waypoint"/>
         <path d="M340.158,198.425 L340.158,192.756 L382.677,192.756 L382.677,198.425 L340.158,198.425 z"
               class="door"/>
      </g>
      <g id="PH-OB-F2-R8">
         <path d="M42.52,450.709 L192.756,450.709 L192.756,282.978 L139.384,229.606 L42.52,229.606 L42.52,450.709 z"
               class="room"/>
         <path d="M120.972,340.658 C132.714,340.658 142.232,350.176 142.232,361.917 C142.232,373.659 132.714,383.177 120.972,383.177 C109.231,383.177 99.713,373.659 99.713,361.917 C99.713,350.176 109.231,340.658 120.972,340.658 z"
               class="waypoint"/>
         <path d="M198.425,382.677 L192.756,382.677 L192.756,340.158 L198.425,340.158 L198.425,382.677 z"
               class="door"/>
      </g>
      <g id="PH-OB-F2-R7">
         <path d="M42.52,677.48 L192.756,677.48 L192.756,456.378 L42.52,456.378 L42.52,677.48 z"
               class="room"/>
         <path d="M120.972,553.256 C132.714,553.256 142.232,562.774 142.232,574.516 C142.232,586.257 132.714,595.776 120.972,595.776 C109.231,595.776 99.713,586.257 99.713,574.516 C99.713,562.774 109.231,553.256 120.972,553.256 z"
               class="waypoint"/>
         <path d="M198.425,595.276 L192.756,595.276 L192.756,552.756 L198.425,552.756 L198.425,595.276 z"
               class="door"/>
      </g>
      <g id="PH-OB-F2-R6">
         <path d="M42.52,960.945 L192.756,960.945 L192.756,683.15 L42.52,683.15 L42.52,960.945 z"
               class="room"/>
         <path d="M120.972,822.547 C132.714,822.547 142.232,832.066 142.232,843.807 C142.232,855.549 132.714,865.067 120.972,865.067 C109.231,865.067 99.713,855.549 99.713,843.807 C99.713,832.066 109.231,822.547 120.972,822.547 z"
               class="waypoint"/>
         <path d="M198.425,864.567 L192.756,864.567 L192.756,822.047 L198.425,822.047 L198.425,864.567 z"
               class="door"/>
      </g>
      <g id="PH-OB-F2-R5">
         <path d="M42.52,1187.717 L139.384,1187.717 L192.756,1134.345 L192.756,966.614 L42.52,966.614 L42.52,1187.717 z"
               class="room"/>
         <path d="M120.972,1037.98 C132.714,1037.98 142.232,1047.499 142.232,1059.24 C142.232,1070.982 132.714,1080.5 120.972,1080.5 C109.231,1080.5 99.713,1070.982 99.713,1059.24 C99.713,1047.499 109.231,1037.98 120.972,1037.98 z"
               class="waypoint"/>
         <path d="M198.425,1080 L192.756,1080 L192.756,1037.48 L198.425,1037.48 L198.425,1080 z"
               class="door"/>
      </g>
      <g id="PH-OB-F2-R4">
         <path d="M450.709,1374.803 L450.709,1224.567 L282.978,1224.567 L229.606,1277.939 L229.606,1374.803 L450.709,1374.803 z"
               class="room"/>
         <path d="M340.658,1297.35 C340.658,1285.609 350.176,1276.091 361.917,1276.091 C373.659,1276.091 383.177,1285.609 383.177,1297.35 C383.177,1309.092 373.659,1318.61 361.917,1318.61 C350.176,1318.61 340.658,1309.092 340.658,1297.35 z"
               class="waypoint"/>
         <path d="M382.677,1218.898 L382.677,1224.567 L340.158,1224.567 L340.158,1218.898 L382.677,1218.898 z"
               class="door"/>
      </g>
      <g id="PH-OB-F2-R3">
         <path d="M677.48,1374.803 L677.48,1224.567 L456.378,1224.567 L456.378,1374.803 L677.48,1374.803 z"
               class="room"/>
         <path d="M553.256,1297.35 C553.256,1285.609 562.774,1276.091 574.516,1276.091 C586.257,1276.091 595.776,1285.609 595.776,1297.35 C595.776,1309.092 586.257,1318.61 574.516,1318.61 C562.774,1318.61 553.256,1309.092 553.256,1297.35 z"
               class="waypoint"/>
         <path d="M595.276,1218.898 L595.276,1224.567 L552.756,1224.567 L552.756,1218.898 L595.276,1218.898 z"
               class="door"/>
      </g>
      <g id="PH-OB-F2-R2">
         <path d="M960.945,1374.803 L960.945,1224.567 L683.15,1224.567 L683.15,1374.803 L960.945,1374.803 z"
               class="room"/>
         <path d="M822.547,1297.35 C822.547,1285.609 832.066,1276.091 843.807,1276.091 C855.549,1276.091 865.067,1285.609 865.067,1297.35 C865.067,1309.092 855.549,1318.61 843.807,1318.61 C832.066,1318.61 822.547,1309.092 822.547,1297.35 z"
               class="waypoint"/>
         <path d="M864.567,1218.898 L864.567,1224.567 L822.047,1224.567 L822.047,1218.898 L864.567,1218.898 z"
               class="door"/>
      </g>
      <g id="PH-OB-F2-R1">
         <path d="M1187.717,1374.803 L1187.717,1277.939 L1134.345,1224.567 L966.614,1224.567 L966.614,1374.803 L1187.717,1374.803 z"
               class="room"/>
         <path d="M1035.146,1297.35 C1035.146,1285.609 1044.664,1276.091 1056.406,1276.091 C1068.147,1276.091 1077.665,1285.609 1077.665,1297.35 C1077.665,1309.092 1068.147,1318.61 1056.406,1318.61 C1044.664,1318.61 1035.146,1309.092 1035.146,1297.35 z"
               class="waypoint"/>
         <path d="M1077.165,1218.898 L1077.165,1224.567 L1034.646,1224.567 L1034.646,1218.898 L1077.165,1218.898 z"
               class="door"/>
      </g>
      <g id="PH-OB-F2-R13">
         <path d="M1374.803,229.606 L1277.939,229.606 L1224.567,282.978 L1224.567,450.709 L1374.803,450.709 L1374.803,229.606 z"
               class="room"/>
         <path d="M1297.35,383.177 C1285.609,383.177 1276.091,373.659 1276.091,361.917 C1276.091,350.176 1285.609,340.658 1297.35,340.658 C1309.092,340.658 1318.61,350.176 1318.61,361.917 C1318.61,373.659 1309.092,383.177 1297.35,383.177 z"
               class="waypoint"/>
         <path d="M1218.898,340.158 L1224.567,340.158 L1224.567,382.677 L1218.898,382.677 L1218.898,340.158 z"
               class="door"/>
      </g>
      <g id="PH-OB-F2-R14">
         <path d="M1374.803,456.378 L1224.567,456.378 L1224.567,734.173 L1374.803,734.173 L1374.803,456.378 z"
               class="room"/>
         <path d="M1297.35,595.776 C1285.609,595.776 1276.091,586.257 1276.091,574.516 C1276.091,562.774 1285.609,553.256 1297.35,553.256 C1309.092,553.256 1318.61,562.774 1318.61,574.516 C1318.61,586.257 1309.092,595.776 1297.35,595.776 z"
               class="waypoint"/>
         <path d="M1218.898,552.756 L1224.567,552.756 L1224.567,595.276 L1218.898,595.276 L1218.898,552.756 z"
               class="door"/>
      </g>
  </g>
</svg>
